<svg width="24" height="24" viewBox="0 0 24 24" fill="none" xmlns="http://www.w3.org/2000/svg">
<path d="M19.4253 8.96541L22.0133 10.4597L21.2662 11.7537L18.6782 10.2594L19.4253 8.96541ZM19.4253 5.9769H22.4138V7.47115H19.4253V5.9769ZM5.2299 10.2594L2.64185 11.7537L1.89472 10.4597L4.48277 8.96541L5.2299 10.2594ZM19.4253 22.4137H17.931V18.678C17.9299 17.6877 17.5359 16.7382 16.8356 16.0379C16.1353 15.3376 15.1858 14.9436 14.1954 14.9424H9.71265C8.72227 14.9436 7.77278 15.3376 7.07247 16.0379C6.37216 16.7382 5.97821 17.6877 5.97702 18.678V22.4137H4.48277V18.678C4.48435 17.2915 5.03586 15.9622 6.01631 14.9817C6.99676 14.0013 8.32609 13.4497 9.71265 13.4482H14.1954C15.582 13.4497 16.9113 14.0013 17.8918 14.9817C18.8722 15.9622 19.4237 17.2915 19.4253 18.678V22.4137ZM11.954 2.98839C12.6929 2.98839 13.4151 3.20748 14.0294 3.61796C14.6438 4.02844 15.1226 4.61186 15.4053 5.29446C15.688 5.97706 15.762 6.72817 15.6179 7.45281C15.4737 8.17745 15.118 8.84308 14.5955 9.36552C14.0731 9.88795 13.4075 10.2437 12.6828 10.3879C11.9582 10.532 11.2071 10.458 10.5245 10.1753C9.84187 9.89256 9.25845 9.41375 8.84797 8.79943C8.43749 8.18511 8.2184 7.46286 8.2184 6.72403C8.2184 5.73327 8.61198 4.7831 9.31254 4.08254C10.0131 3.38197 10.9633 2.98839 11.954 2.98839ZM11.954 1.49414C10.9197 1.49414 9.90851 1.80087 9.04846 2.37554C8.18841 2.9502 7.51809 3.767 7.12225 4.72264C6.72641 5.67827 6.62284 6.72983 6.82464 7.74433C7.02644 8.75882 7.52453 9.6907 8.25595 10.4221C8.98736 11.1535 9.91924 11.6516 10.9337 11.8534C11.9482 12.0552 12.9998 11.9516 13.9554 11.5558C14.9111 11.16 15.7279 10.4896 16.3025 9.62959C16.8772 8.76954 17.1839 7.7584 17.1839 6.72403C17.1839 5.33697 16.6329 4.00673 15.6521 3.02594C14.6713 2.04514 13.3411 1.49414 11.954 1.49414ZM18.6782 3.18862L21.2662 1.69437L22.0133 2.98839L19.4253 4.48265L18.6782 3.18862ZM1.49426 5.9769H4.48277V7.47115H1.49426V5.9769ZM4.48277 4.48265L1.89472 2.98839L2.64185 1.69437L5.2299 3.18862L4.48277 4.48265Z" fill="#007A64"/>
</svg>
