<svg width="24" height="24" viewBox="0 0 24 24" fill="none" xmlns="http://www.w3.org/2000/svg">
<path d="M11.954 1.99219C6.46112 1.99219 1.99231 6.461 1.99231 11.9539C1.99231 17.4467 6.46112 21.9156 11.954 21.9156C17.4469 21.9156 21.9157 17.4467 21.9157 11.9539C21.9157 6.461 17.4469 1.99219 11.954 1.99219ZM11.954 19.9232C7.5599 19.9232 3.98465 16.348 3.98465 11.9539C3.98465 7.55977 7.5599 3.98452 11.954 3.98452C16.3481 3.98452 19.9233 7.55977 19.9233 11.9539C19.9233 16.348 16.3481 19.9232 11.954 19.9232Z" fill="#007A64"/>
<path d="M12.9502 6.97363H10.9579V12.3669L14.2383 15.6473L15.6469 14.2387L12.9502 11.5421V6.97363Z" fill="#007A64"/>
</svg>
